<svg xmlns="http://www.w3.org/2000/svg" width="70" height="70" viewBox="0 0 70 70" fill="none">
  <path class="path-secondary" d="M38.5789 63.8914H31.3969C29.305 63.8914 27.6094 62.1958 27.6094 60.1039V55.1339H42.3664V60.1039C42.3664 62.1958 40.6708 63.8914 38.5789 63.8914Z" fill="#0066FF"></path>
  <path d="M42.3662 55.1339V60.1044C42.3662 62.1963 40.6701 63.8909 38.5782 63.8909H35.3477C37.438 63.8909 39.1341 62.1963 39.1341 60.1044V55.1339H42.3662Z" fill="white"></path>
  <path class="path-primary" d="M59.6549 25.6945C59.6549 36.0424 53.2819 44.903 44.2468 48.5639C43.1044 49.0264 42.3669 50.1469 42.3669 51.379V55.1243H39.1348V49.3447C39.1348 48.1127 39.8728 46.9922 41.0146 46.5297C50.0509 42.8682 56.4238 34.0082 56.4238 23.6603C56.4238 15.5464 52.5065 8.34674 46.4604 3.84998C54.3047 7.98038 59.6549 16.2129 59.6549 25.6945Z" fill="#01C9F5"></path>
  <path d="M12.4524 18.3359C14.6608 11.0113 20.3602 5.33053 27.6976 3.13876C31.6342 1.9633 35.5793 1.73739 39.4239 2.46691C39.9788 2.57266 40.5156 2.20736 40.6208 1.65194C40.7265 1.09652 40.3618 0.560327 39.8058 0.455118C35.6364 -0.33689 31.365 -0.0938933 27.1113 1.1761C23.2057 2.34301 19.6115 4.48405 16.7164 7.36956C13.8202 10.2556 11.6674 13.8434 10.4914 17.7442C8.78774 23.394 8.90844 29.1837 10.8407 34.4879C10.9918 34.904 11.3843 35.1619 11.803 35.1619C11.9189 35.1619 12.0375 35.1422 12.1534 35.1C12.6848 34.9061 12.9582 34.3186 12.7649 33.7873C10.9854 28.9017 10.877 23.5585 12.4524 18.3359Z" fill="#293043"></path>
  <path d="M56.6308 11.8465C54.0523 7.82555 50.4202 4.60678 46.1264 2.53731C45.6169 2.29164 45.0049 2.5058 44.7592 3.01529C44.5135 3.52478 44.7277 4.13681 45.2372 4.38248C49.1897 6.28693 52.5329 9.25041 54.9063 12.952C57.3427 16.7523 58.6308 21.1583 58.6308 25.6946C58.6308 30.4952 57.2006 35.1159 54.4945 39.0578C51.8504 42.9089 48.174 45.8681 43.8614 47.6155C42.3308 48.2355 41.3418 49.7133 41.3418 51.3795V54.1H36.0113V38.442L38.5161 39.6474C38.6565 39.7147 38.8082 39.7483 38.9604 39.7483C39.1121 39.7483 39.2643 39.7147 39.4042 39.6474L43.3776 37.7354C43.8876 37.4903 44.1018 36.8783 43.8566 36.3688C43.611 35.8588 42.9995 35.6446 42.4894 35.8897L38.9604 37.588L35.4308 35.8897C35.1504 35.7546 34.8236 35.7546 34.5432 35.8897L31.0142 37.588L27.4856 35.8897C26.9756 35.6441 26.3641 35.8588 26.1184 36.3688C25.8733 36.8783 26.0875 37.4903 26.5975 37.7354L30.5704 39.6468C30.8507 39.7819 31.1776 39.7819 31.4585 39.6468L33.9632 38.4415V54.1H28.6333V51.3795C28.6333 49.7127 27.6459 48.2355 26.1174 47.6171C21.8951 45.9065 18.2715 43.0258 15.6392 39.2853C15.3134 38.8228 14.6747 38.7117 14.2122 39.0375C13.7497 39.3627 13.6386 40.002 13.9638 40.4639C16.8237 44.5271 20.7602 47.6572 25.3483 49.5151C26.0998 49.8196 26.5847 50.5512 26.5847 51.3795V55.1238C26.5847 55.1254 26.5852 55.127 26.5852 55.1292C26.5852 55.1308 26.5847 55.1324 26.5847 55.134V60.1039C26.5847 62.5317 28.3925 64.5435 30.7322 64.8682V67.1006C30.7322 68.6996 32.0326 70 33.6316 70H36.3435C37.9419 70 39.2429 68.6996 39.2429 67.1006V64.8682C41.5826 64.5441 43.3904 62.5317 43.3904 60.1039V55.134C43.3904 55.1324 43.3899 55.1308 43.3899 55.1292C43.3899 55.127 43.3904 55.1254 43.3904 55.1238V51.3795C43.3904 50.5512 43.8769 49.819 44.6305 49.5135C49.3168 47.6144 53.3116 44.3999 56.1827 40.2167C59.1243 35.9325 60.6789 30.9107 60.6789 25.694C60.6784 20.7658 59.2786 15.9774 56.6308 11.8465ZM37.1943 67.1006C37.1943 67.57 36.813 67.9519 36.3435 67.9519H33.6316C33.1621 67.9519 32.7803 67.57 32.7803 67.1006V64.9425H37.1943V67.1006ZM41.3418 60.1039C41.3418 61.6276 40.1022 62.8671 38.5785 62.8671H31.3965C29.8729 62.8671 28.6333 61.6276 28.6333 60.1039V56.1583H41.3418V60.1039Z" fill="#293043"></path>
</svg>